<svg width="24" height="24" xmlns="http://www.w3.org/2000/svg">

 <g>
  <title>background</title>
  <rect fill="none" id="canvas_background" height="602" width="802" y="-1" x="-1"/>
 </g>
 <g>
  <title>Layer 1</title>
  <path id="svg_1" fill="#009aff" d="m22.9184,6.01238c-0.7696,0.34135 -1.5968,0.57204 -2.4648,0.67577c0.8859,-0.53114 1.5665,-1.37217 1.8869,-2.37437c-0.8293,0.49186 -1.7477,0.849 -2.7253,1.04142c-0.7828,-0.83408 -1.8981,-1.3552 -3.1325,-1.3552c-2.3701,0 -4.2918,1.92147 -4.2918,4.29155c0,0.33635 0.038,0.66391 0.1112,0.97805c-3.56678,-0.179 -6.72912,-1.88757 -8.84578,-4.48409c-0.36944,0.63384 -0.58108,1.37105 -0.58108,2.15758c0,1.48895 0.75763,2.80254 1.90922,3.57221c-0.70344,-0.0224 -1.36527,-0.2154 -1.94384,-0.53684c-0.00041,0.01793 -0.00041,0.03584 -0.00041,0.05394c0,2.0794 1.47935,3.8139 3.44261,4.2082c-0.3601,0.0981 -0.73925,0.1506 -1.13065,0.1506c-0.27654,0 -0.54539,-0.027 -0.80748,-0.077c0.54615,1.7049 2.13107,2.9458 4.00908,2.9803c-1.46878,1.1512 -3.31927,1.8373 -5.33001,1.8373c-0.34641,0 -0.68802,-0.0204 -1.02376,-0.0601c1.89926,1.2177 4.15514,1.9283 6.57873,1.9283c7.89387,0 12.21067,-6.5395 12.21067,-12.21082c0,-0.18604 -0.0042,-0.37113 -0.0125,-0.55523c0.8386,-0.60509 1.5662,-1.36093 2.1415,-2.22157z"/>
 </g>
</svg>